HIERARCHY
ROOT Hips
{
	OFFSET 0.000000 0.000000 0.000000
	CHANNELS 6 Xposition Yposition Zposition Zrotation Yrotation Xrotation 
	JOINT LowerBack
	{
		OFFSET 0.000000 0.000000 0.000000
		CHANNELS 3 Zrotation Yrotation Xrotation
		JOINT Spine
		{
			OFFSET 0.028270 2.035590 -0.193380
			CHANNELS 3 Zrotation Yrotation Xrotation
			JOINT Spine1
			{
				OFFSET 0.056720 2.048850 -0.042750
				CHANNELS 3 Zrotation Yrotation Xrotation
				JOINT Neck
				{
					OFFSET 0.000000 0.000000 0.000000
					CHANNELS 3 Zrotation Yrotation Xrotation
					JOINT Neck1
					{
						OFFSET -0.054170 1.746240 0.172020
						CHANNELS 3 Zrotation Yrotation Xrotation
						JOINT Head
						{
							OFFSET 0.104070 1.761360 -0.123970
							CHANNELS 3 Zrotation Yrotation Xrotation
							End Site
							{
								OFFSET 0.000000 0.000000 0.000000
							}
						}
					}
				}
				JOINT LeftShoulder
				{
					OFFSET 0.000000 0.000000 0.000000
					CHANNELS 3 Zrotation Yrotation Xrotation
					JOINT LeftArm
					{
						OFFSET 3.362410 1.200890 -0.311210
						CHANNELS 3 Zrotation Yrotation Xrotation
						JOINT LeftForeArm
						{
							OFFSET 4.983000 -0.000000 -0.000000
							CHANNELS 3 Zrotation Yrotation Xrotation
							JOINT LeftHand
							{
								OFFSET 3.483560 -0.000000 -0.000000
								CHANNELS 3 Zrotation Yrotation Xrotation
								JOINT LeftFingerBase
								{
									OFFSET 0.000000 0.000000 0.000000
									CHANNELS 3 Zrotation Yrotation Xrotation
									JOINT LeftHandIndex1
									{
										OFFSET 0.715260 -0.000000 -0.000000
										CHANNELS 3 Zrotation Yrotation Xrotation
										End Site
										{
											OFFSET 0.000000 0.000000 0.000000
										}
									}
								}
								JOINT LThumb
								{
									OFFSET 0.000000 0.000000 0.000000
									CHANNELS 3 Zrotation Yrotation Xrotation
									End Site
									{
										OFFSET 0.000000 0.000000 0.000000
									}
								}
							}
						}
					}
				}
				JOINT RightShoulder
				{
					OFFSET 0.000000 0.000000 0.000000
					CHANNELS 3 Zrotation Yrotation Xrotation
					JOINT RightArm
					{
						OFFSET -3.136600 1.374050 -0.404650
						CHANNELS 3 Zrotation Yrotation Xrotation
						JOINT RightForeArm
						{
							OFFSET -5.241900 -0.000000 -0.000000
							CHANNELS 3 Zrotation Yrotation Xrotation
							JOINT RightHand
							{
								OFFSET -3.444170 -0.000000 -0.000000
								CHANNELS 3 Zrotation Yrotation Xrotation
								JOINT RightFingerBase
								{
									OFFSET 0.000000 0.000000 0.000000
									CHANNELS 3 Zrotation Yrotation Xrotation
									JOINT RightHandIndex1
									{
										OFFSET -0.622530 -0.000000 -0.000000
										CHANNELS 3 Zrotation Yrotation Xrotation
										End Site
										{
											OFFSET 0.000000 0.000000 0.000000
										}
									}
								}
								JOINT RThumb
								{
									OFFSET 0.000000 0.000000 0.000000
									CHANNELS 3 Zrotation Yrotation Xrotation
									End Site
									{
										OFFSET 0.000000 0.000000 0.000000
									}
								}
							}
						}
					}
				}
			}
		}
	}
}
}
MOTION
Frames: 18
Frame Time: 0.008333
26.135374 17.195827 2.529558 123.601777 -83.805683 -90.432934 -6.186560 0.052850 -5.190524 -1.318606 0.481876 -4.806175 -1.791603 0.366338 -3.870909 -2.251308 4.708130 -7.083393 -0.488335 -0.038510 0.045656 0.000000 0.000000 0.000000 12.232157 -2.273210 3.956710 -11.078324 -61.157129 -14.036615 -0.499928 -23.123287 -0.047754 7.490967 -4.062599 -0.310291 -0.265930 0.509547 0.000000 0.000000 0.000000 0.000000 0.000000 0.000000 0.000000 -8.590984 12.014990 0.493097 28.786839 60.224846 -26.457352 -2.763674 26.267817 -0.052242 -5.666527 5.660852 -0.307721 0.007532 -0.539096 -0.000000 0.000000 0.000000 0.000000 0.000000 0.000000 0.000000 
25.908979 17.241930 2.531344 123.653418 -83.943526 -90.061566 -6.336910 0.098290 -5.314598 -1.290612 0.547221 -4.849562 -1.549011 0.429363 -3.930947 -2.379846 4.568378 -7.305866 -0.305560 -0.020993 -0.010633 0.000000 0.000000 0.000000 12.393679 -1.695160 3.858476 -8.943017 -62.428923 -17.347812 -0.302103 -23.109577 -0.051114 7.682814 -3.914804 -0.308259 -0.267010 0.516437 0.000000 0.000000 0.000000 0.000000 0.000000 0.000000 0.000000 -9.639095 12.028601 0.349358 27.314362 60.398137 -28.783662 -2.849534 26.273244 -0.054240 -5.862844 5.615311 -0.316655 0.013220 -0.545471 -0.000000 0.000000 0.000000 0.000000 0.000000 0.000000 0.000000 
25.683063 17.277445 2.533520 123.510493 -84.115198 -89.504388 -6.470001 0.136537 -5.437947 -1.258859 0.604316 -4.882995 -1.310519 0.483159 -3.955498 -2.480437 4.414701 -7.541664 -0.121107 -0.002806 -0.072108 0.000000 0.000000 0.000000 12.537032 -1.120340 3.799285 -6.377635 -63.683932 -20.999058 -0.131628 -23.035521 -0.053694 7.822363 -3.802317 -0.306219 -0.268112 0.522020 -0.000000 0.000000 0.000000 0.000000 0.000000 0.000000 0.000000 -10.669012 12.022018 0.214214 25.710835 60.518438 -31.173517 -2.913703 26.263043 -0.055939 -6.033890 5.581957 -0.324792 0.019289 -0.551161 -0.000000 0.000000 0.000000 0.000000 0.000000 0.000000 0.000000 
25.458258 17.301599 2.536837 123.189455 -84.333063 -88.804645 -6.562330 0.172854 -5.543440 -1.219395 0.656530 -4.900412 -1.079848 0.531258 -3.935364 -2.558451 4.244402 -7.795978 0.063234 0.016034 -0.140588 0.000000 0.000000 0.000000 12.629794 -0.538825 3.801299 -3.176174 -64.917293 -25.153595 0.001662 -22.884742 -0.055258 7.883553 -3.711745 -0.302471 -0.268802 0.525878 0.000000 0.000000 0.000000 0.000000 0.000000 0.000000 0.000000 -11.678954 11.989918 0.085529 23.940933 60.591477 -33.632385 -2.956449 26.219665 -0.057456 -6.196483 5.571717 -0.333734 0.026212 -0.556345 -0.000000 0.000000 0.000000 0.000000 0.000000 0.000000 0.000000 
25.234369 17.313195 2.541040 122.712625 -84.572048 -88.005245 -6.633244 0.210353 -5.618830 -1.177755 0.708161 -4.896908 -0.860404 0.577763 -3.860286 -2.610069 4.052976 -8.075235 0.246295 0.035584 -0.218262 0.000000 0.000000 0.000000 12.660848 0.056347 3.889098 0.894528 -66.102249 -30.027474 0.089568 -22.639824 -0.055608 7.841512 -3.629923 -0.295308 -0.268669 0.527765 0.000000 0.000000 0.000000 0.000000 0.000000 0.000000 0.000000 -12.655744 11.920584 -0.037695 21.973122 60.626356 -36.167383 -2.977603 26.121519 -0.058934 -6.368863 5.604854 -0.345580 0.034427 -0.561364 -0.000000 0.000000 0.000000 0.000000 0.000000 0.000000 0.000000 
25.011879 17.311694 2.546893 122.103720 -84.844123 -87.154792 -6.662609 0.255240 -5.648969 -1.130527 0.763683 -4.866468 -0.655587 0.627267 -3.719253 -2.635889 3.835000 -8.388493 0.426910 0.055936 -0.307940 0.000000 0.000000 0.000000 12.603213 0.677397 4.092823 6.119179 -67.191845 -35.905205 0.128502 -22.278492 -0.054681 7.675854 -3.547537 -0.283532 -0.267104 0.528087 0.000000 0.000000 0.000000 0.000000 0.000000 0.000000 0.000000 -13.592767 11.796944 -0.157976 19.768222 60.634816 -38.795175 -2.976123 25.944293 -0.060480 -6.566891 5.704713 -0.363033 0.044451 -0.566580 -0.000000 0.000000 0.000000 0.000000 0.000000 0.000000 0.000000 
24.790516 17.296272 2.553996 121.378783 -85.126698 -86.276918 -6.674121 0.309757 -5.629365 -1.083300 0.826878 -4.806314 -0.466478 0.683293 -3.503910 -2.625643 3.584866 -8.745432 0.604336 0.077228 -0.412566 0.000000 0.000000 0.000000 12.455032 1.334286 4.436922 12.741011 -68.099228 -43.060290 0.125390 -21.776610 -0.052660 7.384185 -3.452696 -0.266542 -0.263794 0.527833 0.000000 0.000000 0.000000 0.000000 0.000000 0.000000 0.000000 -14.467913 11.594126 -0.273358 17.291422 60.629668 -41.532385 -2.948314 25.666575 -0.062141 -6.803115 5.891781 -0.388293 0.056719 -0.572216 -0.000000 0.000000 0.000000 0.000000 0.000000 0.000000 0.000000 
24.570502 17.266361 2.561925 120.553435 -85.400193 -85.383295 -6.694580 0.373632 -5.563113 -1.040932 0.899397 -4.717405 -0.289685 0.747260 -3.214981 -2.567254 3.298616 -9.153284 0.778155 0.099564 -0.534140 0.000000 0.000000 0.000000 12.227529 2.035531 4.926673 20.822902 -68.704632 -51.627975 0.104349 -21.106132 -0.049964 6.980357 -3.335439 -0.244946 -0.258370 0.528767 -0.000000 0.000000 0.000000 0.000000 0.000000 0.000000 0.000000 -15.255954 11.285022 -0.376393 14.510042 60.625475 -44.395957 -2.887573 25.269783 -0.063853 -7.082979 6.180427 -0.423560 0.071576 -0.578318 -0.000000 0.000000 0.000000 0.000000 0.000000 0.000000 0.000000 
24.351891 17.222082 2.570977 119.626089 -85.680818 -84.464942 -6.713165 0.445307 -5.449343 -0.998345 0.978976 -4.603515 -0.115439 0.817325 -2.869482 -2.457359 2.973633 -9.611383 0.948142 0.122883 -0.672140 0.000000 0.000000 0.000000 11.931590 2.784960 5.529212 30.058252 -68.888006 -61.427787 0.109161 -20.242945 -0.047132 6.493456 -3.192353 -0.220054 -0.250130 0.533107 0.000000 0.000000 0.000000 0.000000 0.000000 0.000000 0.000000 -15.942444 10.850912 -0.450772 11.392575 60.637949 -47.407072 -2.784829 24.738272 -0.065392 -7.399881 6.575285 -0.469830 0.089233 -0.584767 -0.000000 0.000000 0.000000 0.000000 0.000000 0.000000 0.000000 
24.134731 17.163307 2.580296 118.620327 -85.943934 -83.522526 -6.766054 0.513413 -5.300871 -0.959965 1.057183 -4.476742 0.068919 0.885130 -2.504369 -2.288829 2.611605 -10.099861 1.113668 0.146717 -0.820249 0.000000 0.000000 0.000000 11.620901 3.556743 6.156599 39.620311 -68.587000 -71.793767 0.190785 -19.203286 -0.044577 5.965865 -3.025831 -0.193880 -0.238472 0.541875 0.000000 0.000000 0.000000 0.000000 0.000000 0.000000 0.000000 -16.504740 10.296039 -0.467004 7.926387 60.680177 -50.572182 -2.633165 24.060745 -0.066470 -7.738298 7.068519 -0.526898 0.109432 -0.591411 -0.000000 0.000000 0.000000 0.000000 0.000000 0.000000 0.000000 
23.918791 17.090456 2.589553 117.564058 -86.186107 -82.569320 -6.856205 0.563759 -5.129628 -0.924063 1.120258 -4.351043 0.271002 0.937312 -2.162984 -2.068224 2.217685 -10.582827 1.273441 0.170216 -0.967370 0.000000 0.000000 0.000000 11.350828 4.296886 6.695401 48.464045 -67.858839 -81.815832 0.381781 -18.066603 -0.042444 5.446260 -2.847351 -0.169028 -0.223211 0.553906 -0.000000 0.000000 0.000000 0.000000 0.000000 0.000000 0.000000 -16.940423 9.656205 -0.393954 4.116514 60.757338 -53.887400 -2.433376 23.231151 -0.066779 -8.070197 7.639007 -0.592357 0.131343 -0.598181 -0.000000 0.000000 0.000000 0.000000 0.000000 0.000000 0.000000 
23.703750 17.004084 2.598293 116.509543 -86.398027 -81.642471 -6.982097 0.582040 -4.956023 -0.891035 1.153756 -4.238322 0.485445 0.959632 -1.870913 -1.807192 1.800162 -11.022648 1.425504 0.192440 -1.101993 0.000000 0.000000 0.000000 11.176734 4.938818 7.063170 55.801594 -66.848922 -90.750979 0.674491 -16.966439 -0.040730 4.985908 -2.672011 -0.147396 -0.205579 0.566116 -0.000000 0.000000 0.000000 0.000000 0.000000 0.000000 0.000000 -17.258335 8.982174 -0.214003 -0.005630 60.862078 -57.325400 -2.196743 22.255829 -0.066093 -8.360374 8.254692 -0.661703 0.153519 -0.605018 -0.000000 0.000000 0.000000 0.000000 0.000000 0.000000 0.000000 
23.489382 16.905330 2.606677 115.497548 -86.590980 -80.780356 -7.115474 0.562426 -4.800002 -0.857961 1.149653 -4.143326 0.697420 0.944395 -1.627607 -1.524328 1.369885 -11.396264 1.569528 0.212843 -1.216899 0.000000 0.000000 0.000000 11.131128 5.436438 7.246065 61.365319 -65.710265 -98.300356 1.029761 -16.029209 -0.039443 4.623193 -2.525851 -0.131078 -0.187782 0.576077 0.000000 0.000000 0.000000 0.000000 0.000000 0.000000 0.000000 -17.490001 8.313826 0.062407 -4.352807 60.974608 -60.817225 -1.942058 21.163331 -0.064259 -8.563136 8.877506 -0.727533 0.174009 -0.611750 -0.000000 0.000000 0.000000 0.000000 0.000000 0.000000 0.000000 
23.275558 16.795789 2.614991 114.527548 -86.776637 -79.987420 -7.229782 0.506208 -4.667679 -0.822633 1.107118 -4.063304 0.892383 0.891183 -1.417161 -1.236681 0.936016 -11.699095 1.706359 0.231354 -1.310567 0.000000 0.000000 0.000000 11.224499 5.778002 7.281571 65.285974 -64.543606 -104.535167 1.403954 -15.334765 -0.038797 4.388722 -2.427009 -0.120670 -0.172506 0.583152 -0.000000 0.000000 0.000000 0.000000 0.000000 0.000000 0.000000 -17.668837 7.665751 0.407256 -8.817014 61.071846 -64.267863 -1.686374 20.000788 -0.061214 -8.634519 9.467443 -0.781249 0.191028 -0.617916 -0.000000 0.000000 0.000000 0.000000 0.000000 0.000000 0.000000 
23.062011 16.677659 2.623491 113.559128 -86.966775 -79.225856 -7.305482 0.419405 -4.561371 -0.783192 1.030786 -3.994896 1.062116 0.804955 -1.226431 -0.959723 0.505814 -11.933842 1.837951 0.248122 -1.383540 0.000000 0.000000 0.000000 11.448160 5.973233 7.219697 67.857088 -63.412072 -109.687247 1.765400 -14.906544 -0.038826 4.275154 -2.408597 -0.116973 -0.160878 0.588930 -0.000000 0.000000 0.000000 0.000000 0.000000 0.000000 0.000000 -17.828579 7.036367 0.784218 -13.245585 61.141126 -67.557346 -1.442055 18.828315 -0.056905 -8.525458 9.992707 -0.813456 0.202780 -0.623030 0.000000 0.000000 0.000000 0.000000 0.000000 0.000000 0.000000 
22.848234 16.553400 2.632354 112.538099 -87.165064 -78.434834 -7.334289 0.308657 -4.485592 -0.738687 0.926961 -3.936628 1.205827 0.692069 -1.047841 -0.710659 0.084011 -12.103934 1.967649 0.263435 -1.436562 0.000000 0.000000 0.000000 11.798905 6.037595 7.099801 69.321071 -62.362229 -113.951650 2.095289 -14.769766 -0.039843 4.299034 -2.461699 -0.119890 -0.154549 0.594522 0.000000 0.000000 0.000000 0.000000 0.000000 0.000000 0.000000 -18.006717 6.420035 1.158652 -17.471479 61.181209 -70.550503 -1.215455 17.714455 -0.051388 -8.202770 10.429069 -0.816354 0.208070 -0.626655 -0.000000 0.000000 0.000000 0.000000 0.000000 0.000000 0.000000 
22.634348 16.426320 2.641550 111.336239 -87.368996 -77.488512 -7.317551 0.179422 -4.432207 -0.689624 0.801204 -3.886176 1.325665 0.558310 -0.880107 -0.499331 -0.328932 -12.212872 2.096263 0.277374 -1.470559 0.000000 0.000000 0.000000 12.259079 5.989192 6.947814 69.917831 -61.424813 -117.503300 2.382696 -14.915934 -0.041586 4.415294 -2.592228 -0.128516 -0.152287 0.601611 -0.000000 0.000000 0.000000 0.000000 0.000000 0.000000 0.000000 -18.219466 5.810744 1.506125 -21.373654 61.207946 -73.153172 -1.007091 16.719820 -0.044774 -7.648382 10.762765 -0.785545 0.206165 -0.628417 -0.000000 0.000000 0.000000 0.000000 0.000000 0.000000 0.000000 
22.419749 16.300181 2.650978 109.811933 -87.572588 -76.246991 -7.257497 0.035738 -4.391910 -0.635944 0.657714 -3.842055 1.427314 0.408056 -0.725497 -0.336261 -0.738806 -12.263089 2.223682 0.289917 -1.486171 0.000000 0.000000 0.000000 12.780770 5.840429 6.777211 69.854711 -60.610272 -120.425480 2.619388 -15.310999 -0.043574 4.558405 -2.805586 -0.141843 -0.151627 0.611488 -0.000000 0.000000 0.000000 0.000000 0.000000 0.000000 0.000000 -18.478463 5.202117 1.813648 -24.893182 61.258933 -75.385848 -0.814711 15.876979 -0.037137 -6.844916 11.008750 -0.719330 0.196325 -0.628561 -0.000000 0.000000 0.000000 0.000000 0.000000 0.000000 0.000000 
